<svg xmlns="http://www.w3.org/2000/svg" viewBox="0 0 64 64" width="64" height="64"><defs><radialGradient id="g" cx="50%" cy="45%" r="60%"><stop offset="0" stop-color="#0a2a36"/><stop offset="1" stop-color="#010207"/></radialGradient><filter id="glow" x="-30%" y="-30%" width="160%" height="160%"><feGaussianBlur stdDeviation="0.71" result="b"/><feMerge><feMergeNode in="b"/><feMergeNode in="SourceGraphic"/></feMerge></filter></defs><rect width="64" height="64" rx="14.1" fill="url(#g)"/><g filter="url(#glow)" stroke-linejoin="round"><polygon points="32.00,7.42 54.17,20.22 32.00,33.02 9.83,20.22" fill="#0b2a33" stroke="rgba(111,245,238,0.55)" stroke-width="1.00"/><polygon points="32.00,9.22 36.29,11.69 32.00,14.17 27.71,11.69" fill="rgba(0,191,243,0.08)" stroke="rgba(111,245,238,0.85)" stroke-width="1.14"/><polygon points="24.61,13.48 28.90,15.96 24.61,18.43 20.32,15.96" fill="rgba(0,191,243,0.08)" stroke="rgba(111,245,238,0.85)" stroke-width="1.14"/><polygon points="17.22,17.75 21.51,20.22 17.22,22.70 12.93,20.22" fill="rgba(0,191,243,0.08)" stroke="rgba(111,245,238,0.85)" stroke-width="1.14"/><polygon points="39.39,13.48 43.68,15.96 39.39,18.43 35.10,15.96" fill="rgba(0,191,243,0.08)" stroke="rgba(111,245,238,0.85)" stroke-width="1.14"/><polygon points="32.00,17.75 36.29,20.22 32.00,22.70 27.71,20.22" fill="rgba(111,245,238,0.38)" stroke="rgba(190,255,252,1)" stroke-width="1.60"/><polygon points="24.61,22.02 28.90,24.49 24.61,26.97 20.32,24.49" fill="rgba(0,191,243,0.08)" stroke="rgba(111,245,238,0.85)" stroke-width="1.14"/><polygon points="46.78,17.75 51.07,20.22 46.78,22.70 42.49,20.22" fill="rgba(0,191,243,0.08)" stroke="rgba(111,245,238,0.85)" stroke-width="1.14"/><polygon points="39.39,22.02 43.68,24.49 39.39,26.97 35.10,24.49" fill="rgba(0,191,243,0.08)" stroke="rgba(111,245,238,0.85)" stroke-width="1.14"/><polygon points="32.00,26.28 36.29,28.76 32.00,31.23 27.71,28.76" fill="rgba(0,191,243,0.08)" stroke="rgba(111,245,238,0.85)" stroke-width="1.14"/><polygon points="9.83,20.22 32.00,33.02 32.00,58.62 9.83,45.82" fill="#061820" stroke="rgba(111,245,238,0.44000000000000006)" stroke-width="1.00"/><polygon points="11.38,22.91 15.67,25.39 15.67,30.34 11.38,27.86" fill="rgba(0,191,243,0.08)" stroke="rgba(111,245,238,0.68)" stroke-width="1.14"/><polygon points="11.38,31.45 15.67,33.92 15.67,38.87 11.38,36.39" fill="rgba(0,191,243,0.08)" stroke="rgba(111,245,238,0.68)" stroke-width="1.14"/><polygon points="11.38,39.98 15.67,42.45 15.67,47.40 11.38,44.93" fill="rgba(0,191,243,0.08)" stroke="rgba(111,245,238,0.68)" stroke-width="1.14"/><polygon points="18.77,27.18 23.06,29.65 23.06,34.60 18.77,32.13" fill="rgba(0,191,243,0.08)" stroke="rgba(111,245,238,0.68)" stroke-width="1.14"/><polygon points="18.77,35.71 23.06,38.19 23.06,43.14 18.77,40.66" fill="rgba(111,245,238,0.30400000000000005)" stroke="rgba(190,255,252,0.8)" stroke-width="1.60"/><polygon points="18.77,44.25 23.06,46.72 23.06,51.67 18.77,49.19" fill="rgba(0,191,243,0.08)" stroke="rgba(111,245,238,0.68)" stroke-width="1.14"/><polygon points="26.16,31.45 30.45,33.92 30.45,38.87 26.16,36.39" fill="rgba(0,191,243,0.08)" stroke="rgba(111,245,238,0.68)" stroke-width="1.14"/><polygon points="26.16,39.98 30.45,42.45 30.45,47.40 26.16,44.93" fill="rgba(0,191,243,0.08)" stroke="rgba(111,245,238,0.68)" stroke-width="1.14"/><polygon points="26.16,48.51 30.45,50.99 30.45,55.94 26.16,53.46" fill="rgba(0,191,243,0.08)" stroke="rgba(111,245,238,0.68)" stroke-width="1.14"/><polygon points="32.00,33.02 54.17,20.22 54.17,45.82 32.00,58.62" fill="#04121a" stroke="rgba(111,245,238,0.35750000000000004)" stroke-width="1.00"/><polygon points="33.55,33.92 37.84,31.45 37.84,36.39 33.55,38.87" fill="rgba(0,191,243,0.08)" stroke="rgba(111,245,238,0.5525)" stroke-width="1.14"/><polygon points="33.55,42.45 37.84,39.98 37.84,44.93 33.55,47.40" fill="rgba(0,191,243,0.08)" stroke="rgba(111,245,238,0.5525)" stroke-width="1.14"/><polygon points="33.55,50.99 37.84,48.51 37.84,53.46 33.55,55.94" fill="rgba(0,191,243,0.08)" stroke="rgba(111,245,238,0.5525)" stroke-width="1.14"/><polygon points="40.94,29.65 45.23,27.18 45.23,32.13 40.94,34.60" fill="rgba(0,191,243,0.08)" stroke="rgba(111,245,238,0.5525)" stroke-width="1.14"/><polygon points="40.94,38.19 45.23,35.71 45.23,40.66 40.94,43.14" fill="rgba(111,245,238,0.24700000000000003)" stroke="rgba(190,255,252,0.65)" stroke-width="1.60"/><polygon points="40.94,46.72 45.23,44.25 45.23,49.19 40.94,51.67" fill="rgba(0,191,243,0.08)" stroke="rgba(111,245,238,0.5525)" stroke-width="1.14"/><polygon points="48.33,25.39 52.62,22.91 52.62,27.86 48.33,30.34" fill="rgba(0,191,243,0.08)" stroke="rgba(111,245,238,0.5525)" stroke-width="1.14"/><polygon points="48.33,33.92 52.62,31.45 52.62,36.39 48.33,38.87" fill="rgba(0,191,243,0.08)" stroke="rgba(111,245,238,0.5525)" stroke-width="1.14"/><polygon points="48.33,42.45 52.62,39.98 52.62,44.93 48.33,47.40" fill="rgba(0,191,243,0.08)" stroke="rgba(111,245,238,0.5525)" stroke-width="1.14"/></g></svg>