<?xml version="1.0" encoding="utf-8"?>
<!-- Generator: Adobe Illustrator 22.1.0, SVG Export Plug-In . SVG Version: 6.00 Build 0)  -->
<svg version="1.1" id="Layer_1" xmlns="http://www.w3.org/2000/svg" xmlns:xlink="http://www.w3.org/1999/xlink" x="0px" y="0px"
	 viewBox="0 0 123.3 34" style="enable-background:new 0 0 123.3 34;" xml:space="preserve">
<style type="text/css">
	.st0{fill:#D3D5C8;}
</style>
<g>
	<g>
		<path class="st0" d="M78.2,6c-0.5,0-0.9,0.4-0.9,0.9v6.5c0,0.5,0.4,0.9,0.9,0.9h4.7V6H78.2z"/>
		<path class="st0" d="M98.7,28.1c0.5,0,0.9-0.4,0.9-0.9v-6.3c0-0.5-0.4-0.9-0.9-0.9h-4.7v8.2H98.7z"/>
		<path class="st0" d="M95,11.6h3.7c0.5,0,0.9-0.4,0.9-0.9V6.9c0-0.5-0.4-0.9-0.9-0.9h-4.7v4.7C94.1,11.2,94.5,11.6,95,11.6z"/>
		<path class="st0" d="M81.9,22.5h-3.7c-0.5,0-0.9,0.4-0.9,0.9v3.7c0,0.5,0.4,0.9,0.9,0.9h4.7v-4.7C82.9,22.9,82.5,22.5,81.9,22.5z"
			/>
		<path class="st0" d="M82.9,6h11.2V1.3c0-0.5-0.4-0.9-0.9-0.9h-9.3c-0.5,0-0.9,0.4-0.9,0.9V6z"/>
		<path class="st0" d="M94.1,28.1H82.9v4.7c0,0.5,0.4,0.9,0.9,0.9h9.3c0.5,0,0.9-0.4,0.9-0.9V28.1z"/>
		<path class="st0" d="M93.2,14.4c0.5,0,0.9,0.4,0.9,0.9V20H83.8c-0.5,0-0.9-0.4-0.9-0.9v-4.7H93.2z"/>
	</g>
	<g>
		<path class="st0" d="M52.5,6c-0.5,0-0.9,0.4-0.9,0.9v20.3c0,0.5,0.4,0.9,0.9,0.9h4.7V6H52.5z"/>
		<path class="st0" d="M73.1,28.1c0.5,0,0.9-0.4,0.9-0.9V6.9C74,6.4,73.6,6,73.1,6h-4.7v22.1H73.1z"/>
		<path class="st0" d="M68.4,28.1H57.2v4.7c0,0.5,0.4,0.9,0.9,0.9h9.3c0.5,0,0.9-0.4,0.9-0.9V28.1z"/>
		<path class="st0" d="M57.2,6h11.2V1.3c0-0.5-0.4-0.9-0.9-0.9h-9.3c-0.5,0-0.9,0.4-0.9,0.9V6z"/>
	</g>
	<g>
		<path class="st0" d="M1.6,6C1.1,6,0.7,6.4,0.7,6.9v20.3c0,0.5,0.4,0.9,0.9,0.9h4.7V6H1.6z"/>
		<path class="st0" d="M22.5,28.1H6.3v4.7c0,0.5,0.4,0.9,0.9,0.9h14.3c0.5,0,0.9-0.4,0.9-0.9V28.1z"/>
		<path class="st0" d="M6.3,6h16.2V1.3c0-0.5-0.4-0.9-0.9-0.9H7.2c-0.5,0-0.9,0.4-0.9,0.9V6z"/>
	</g>
	<g>
		<path class="st0" d="M47.4,28.1c0.5,0,0.9,0.4,0.9,0.9v3.7c0,0.5-0.4,0.9-0.9,0.9H32.5c-0.5,0-0.9-0.4-0.9-0.9v-4.7H47.4z"/>
		<path class="st0" d="M31.6,1.3c0-0.5-0.4-0.9-0.9-0.9h-3.7c-0.5,0-0.9,0.4-0.9,0.9v25.9c0,0.5,0.4,0.9,0.9,0.9h4.7V1.3z"/>
	</g>
	<g>
		<path class="st0" d="M122.9,5.1V1.4c0-0.5-0.4-0.9-0.9-0.9h-12.1c-0.5,0-0.9,0.4-0.9,0.9V6h13C122.5,6,122.9,5.6,122.9,5.1z"/>
		<path class="st0" d="M122,33.7c0.5,0,0.9-0.4,0.9-0.9v-3.7c0-0.5-0.4-0.9-0.9-0.9h-13v-8.3l-4.7,0c-0.5,0-0.9,0.4-0.9,0.9v12
			c0,0.5,0.4,0.9,0.9,0.9H122z"/>
		<path class="st0" d="M104.3,6c-0.5,0-0.9,0.4-0.9,0.9v6.4c0,0.5,0.4,0.9,0.9,0.9l4.7,0V6H104.3z"/>
		<path class="st0" d="M119.2,19.9c0.5,0,0.9-0.4,0.9-0.9v-3.7c0-0.5-0.4-0.9-0.9-0.9h-10.3v5.6H119.2z"/>
	</g>
</g>
</svg>
