<?xml version="1.0" encoding="utf-8"?>
<!-- Generator: Adobe Illustrator 22.1.0, SVG Export Plug-In . SVG Version: 6.00 Build 0)  -->
<svg version="1.1" id="Layer_1" xmlns="http://www.w3.org/2000/svg" xmlns:xlink="http://www.w3.org/1999/xlink" x="0px" y="0px"
	 viewBox="0 0 98.8 34" style="enable-background:new 0 0 98.8 34;" xml:space="preserve">
<style type="text/css">
	.st0{fill:#D3D5C8;}
</style>
<g>
	<g>
		<path class="st0" d="M31.6,1.3c0-0.5-0.4-0.9-0.9-0.9h-3.7c-0.5,0-0.9,0.4-0.9,0.9v31.5c0,0.5,0.4,0.9,0.9,0.9h3.7
			c0.5,0,0.9-0.4,0.9-0.9V1.3z"/>
	</g>
	<g>
		<path class="st0" d="M47.6,1.3c0-0.5-0.4-0.9-0.9-0.9h-3.7c-0.5,0-0.9,0.4-0.9,0.9v31.5c0,0.5,0.4,0.9,0.9,0.9h3.7
			c0.5,0,0.9-0.4,0.9-0.9V1.3z"/>
	</g>
	<g>
		<path class="st0" d="M43.6,19.9c0.3,0,0.5-0.4,0.5-0.9v-3.7c0-0.5-0.2-0.9-0.5-0.9H27.9c-0.3,0-0.5,0.4-0.5,0.9v3.7
			c0,0.5,0.2,0.9,0.5,0.9H43.6z"/>
	</g>
	<g>
		<path class="st0" d="M1.5,6C1,6,0.6,6.4,0.6,6.9v6.5c0,0.5,0.4,0.9,0.9,0.9h4.7V6H1.5z"/>
		<path class="st0" d="M22,28.1c0.5,0,0.9-0.4,0.9-0.9v-6.3c0-0.5-0.4-0.9-0.9-0.9h-4.7v8.2H22z"/>
		<path class="st0" d="M18.3,11.6H22c0.5,0,0.9-0.4,0.9-0.9V6.9C23,6.4,22.5,6,22,6h-4.7v4.7C17.4,11.2,17.8,11.6,18.3,11.6z"/>
		<path class="st0" d="M5.2,22.5H1.5c-0.5,0-0.9,0.4-0.9,0.9v3.7c0,0.5,0.4,0.9,0.9,0.9h4.7v-4.7C6.2,22.9,5.7,22.5,5.2,22.5z"/>
		<path class="st0" d="M6.2,6h11.2V1.3c0-0.5-0.4-0.9-0.9-0.9H7.1c-0.5,0-0.9,0.4-0.9,0.9V6z"/>
		<path class="st0" d="M17.4,28.1H6.2v4.7c0,0.5,0.4,0.9,0.9,0.9h9.3c0.5,0,0.9-0.4,0.9-0.9V28.1z"/>
		<path class="st0" d="M16.4,14.4c0.5,0,0.9,0.4,0.9,0.9V20H7.1c-0.5,0-0.9-0.4-0.9-0.9v-4.7H16.4z"/>
	</g>
	<g>
		<path class="st0" d="M51.7,6c-0.5,0-0.9,0.4-0.9,0.9v20.3c0,0.5,0.4,0.9,0.9,0.9h4.7V6H51.7z"/>
		<path class="st0" d="M72.2,28.1c0.5,0,0.9-0.4,0.9-0.9V6.9c0-0.5-0.4-0.9-0.9-0.9h-4.7v22.1H72.2z"/>
		<path class="st0" d="M67.6,28.1H56.4v4.7c0,0.5,0.4,0.9,0.9,0.9h9.3c0.5,0,0.9-0.4,0.9-0.9V28.1z"/>
		<path class="st0" d="M56.4,6h11.2V1.3c0-0.5-0.4-0.9-0.9-0.9h-9.3c-0.5,0-0.9,0.4-0.9,0.9V6z"/>
	</g>
	<g>
		<path class="st0" d="M92.7,14.4h4.7c0.5,0,0.9-0.4,0.9-0.9V6.9c0-0.5-0.4-0.9-0.9-0.9h-4.7V14.4z"/>
		<path class="st0" d="M82.4,14.4c-0.5,0-0.9-0.4-0.9-0.9V6.9c0-0.5,0.4-0.9,0.9-0.9l10.3,0V1.3c0-0.5-0.4-0.9-0.9-0.9H76.8
			c-0.5,0-0.9,0.4-0.9,0.9v31.5c0,0.5,0.4,0.9,0.9,0.9h3.7c0.5,0,0.9-0.4,0.9-0.9V20.9c0-0.5,0.4-0.9,0.9-0.9l9.3,0
			c0.5,0,0.9-0.4,0.9-0.9v-4.7H82.4z"/>
	</g>
</g>
</svg>
