<?xml version="1.0" encoding="utf-8"?>
<!-- Generator: Adobe Illustrator 22.1.0, SVG Export Plug-In . SVG Version: 6.00 Build 0)  -->
<svg version="1.1" id="Layer_1" xmlns="http://www.w3.org/2000/svg" xmlns:xlink="http://www.w3.org/1999/xlink" x="0px" y="0px"
	 viewBox="0 0 111.2 34" style="enable-background:new 0 0 111.2 34;" xml:space="preserve">
<style type="text/css">
	.st0{fill:#D3D5C8;}
</style>
<g>
	<path class="st0" d="M22,28.1c0.5,0,0.9-0.4,0.9-0.9l0-25.8c0-0.5-0.4-0.9-0.9-0.9l-3.7,0c-0.5,0-0.9,0.4-0.9,0.9v31.4
		c0,0.5-0.4,0.9-0.9,0.9h-3.7c-0.5,0-0.9-0.4-0.9-0.9V15.3c0-0.5-0.4-0.9-0.9-0.9l-9.3,0c-0.5,0-0.9-0.4-0.9-0.9V1.3
		c0-0.5,0.4-0.9,0.9-0.9h3.7c0.5,0,0.9,0.4,0.9,0.9v25.8c0,0.5,0.4,0.9,0.9,0.9H22z"/>
	<g>
		<path class="st0" d="M89.3,6c-0.5,0-0.9,0.4-0.9,0.9v20.3c0,0.5,0.4,0.9,0.9,0.9h4.7V6H89.3z"/>
		<path class="st0" d="M109.8,28.1c0.5,0,0.9-0.4,0.9-0.9V6.9c0-0.5-0.4-0.9-0.9-0.9h-4.7v22.1H109.8z"/>
		<path class="st0" d="M105.1,28.1H93.9v4.7c0,0.5,0.4,0.9,0.9,0.9h9.3c0.5,0,0.9-0.4,0.9-0.9V28.1z"/>
		<path class="st0" d="M93.9,6h11.2V1.3c0-0.5-0.4-0.9-0.9-0.9h-9.3c-0.5,0-0.9,0.4-0.9,0.9V6z"/>
	</g>
	<g>
		<path class="st0" d="M33.6,1.3c0-0.5-0.4-0.9-0.9-0.9h-3.7c-0.5,0-0.9,0.4-0.9,0.9v31.5c0,0.5,0.4,0.9,0.9,0.9h3.7
			c0.5,0,0.9-0.4,0.9-0.9V1.3z"/>
	</g>
	<g>
		<path class="st0" d="M84.3,5.1V1.3c0-0.5-0.4-0.9-0.9-0.9H71.3c-0.5,0-0.9,0.4-0.9,0.9V6h13C83.9,6,84.3,5.6,84.3,5.1z"/>
		<path class="st0" d="M83.4,33.7c0.5,0,0.9-0.4,0.9-0.9V29c0-0.5-0.4-0.9-0.9-0.9h-13v-8.3l-4.7,0c-0.5,0-0.9,0.4-0.9,0.9v12
			c0,0.5,0.4,0.9,0.9,0.9H83.4z"/>
		<path class="st0" d="M65.7,6c-0.5,0-0.9,0.4-0.9,0.9v6.4c0,0.5,0.4,0.9,0.9,0.9l4.7,0V6H65.7z"/>
		<path class="st0" d="M80.6,19.8c0.5,0,0.9-0.4,0.9-0.9v-3.7c0-0.5-0.4-0.9-0.9-0.9H70.4v5.6H80.6z"/>
	</g>
	<g>
		<path class="st0" d="M54.8,28.1h4.7c0.5,0,0.9-0.4,0.9-0.9V6.9c0-0.5-0.4-0.9-0.9-0.9h-4.7V28.1z"/>
		<path class="st0" d="M53.8,33.7c0.5,0,0.9-0.4,0.9-0.9v-4.7H44.5c-0.5,0-0.9-0.4-0.9-0.9V6.9C43.6,6.4,44,6,44.5,6l10.3,0V1.3
			c0-0.5-0.4-0.9-0.9-0.9H38.9c-0.5,0-0.9,0.4-0.9,0.9v31.5c0,0.5,0.4,0.9,0.9,0.9"/>
	</g>
</g>
</svg>
