<?xml version="1.0" encoding="utf-8"?>
<!-- Generator: Adobe Illustrator 22.1.0, SVG Export Plug-In . SVG Version: 6.00 Build 0)  -->
<svg version="1.1" id="Layer_1" xmlns="http://www.w3.org/2000/svg" xmlns:xlink="http://www.w3.org/1999/xlink" x="0px" y="0px"
	 viewBox="0 0 246.8 34" style="enable-background:new 0 0 246.8 34;" xml:space="preserve">
<style type="text/css">
	.st0{fill:#D3D5C8;}
</style>
<g>
	<g>
		<g>
			<path class="st0" d="M1.3,6C0.8,6,0.4,6.4,0.4,6.9v6.5c0,0.5,0.4,0.9,0.9,0.9H6V6H1.3z"/>
			<path class="st0" d="M21.9,28.1c0.5,0,0.9-0.4,0.9-0.9v-6.3c0-0.5-0.4-0.9-0.9-0.9h-4.7v8.2h4.7V28.1z"/>
			<path class="st0" d="M18.1,11.6h3.7c0.5,0,0.9-0.4,0.9-0.9V6.9c0-0.5-0.4-0.9-0.9-0.9h-4.7v4.7C17.2,11.2,17.6,11.6,18.1,11.6z"
				/>
			<path class="st0" d="M5.1,22.5H1.3c-0.5,0-0.9,0.4-0.9,0.9v3.7c0,0.5,0.4,0.9,0.9,0.9H6v-4.7C6,22.9,5.6,22.5,5.1,22.5z"/>
			<path class="st0" d="M6,6h11.2V1.3c0-0.5-0.4-0.9-0.9-0.9H6.9C6.4,0.4,6,0.8,6,1.3V6z"/>
			<path class="st0" d="M17.2,28.1H6v4.7c0,0.5,0.4,0.9,0.9,0.9h9.3c0.5,0,0.9-0.4,0.9-0.9v-4.7H17.2z"/>
			<path class="st0" d="M16.3,14.4c0.5,0,0.9,0.4,0.9,0.9V20H6.9C6.4,20,6,19.5,6,19v-4.7L16.3,14.4L16.3,14.4z"/>
		</g>
		<g>
			<path class="st0" d="M166.4,6c-0.5,0-0.9,0.4-0.9,0.9v6.5c0,0.5,0.4,0.9,0.9,0.9h4.7V6H166.4z"/>
			<path class="st0" d="M186.9,28.1c0.5,0,0.9-0.4,0.9-0.9v-6.3c0-0.5-0.4-0.9-0.9-0.9h-4.7v8.2h4.7V28.1z"/>
			<path class="st0" d="M183.2,11.6h3.7c0.5,0,0.9-0.4,0.9-0.9V6.9c0-0.5-0.4-0.9-0.9-0.9h-4.7v4.7
				C182.2,11.2,182.7,11.6,183.2,11.6z"/>
			<path class="st0" d="M170.1,22.5h-3.7c-0.5,0-0.9,0.4-0.9,0.9v3.7c0,0.5,0.4,0.9,0.9,0.9h4.7v-4.7
				C171,22.9,170.6,22.5,170.1,22.5z"/>
			<path class="st0" d="M171,6h11.2V1.3c0-0.5-0.4-0.9-0.9-0.9H172c-0.5,0-0.9,0.4-0.9,0.9V6H171z"/>
			<path class="st0" d="M182.2,28.1H171v4.7c0,0.5,0.4,0.9,0.9,0.9h9.3c0.5,0,0.9-0.4,0.9-0.9v-4.7H182.2z"/>
			<path class="st0" d="M181.3,14.4c0.5,0,0.9,0.4,0.9,0.9V20H172c-0.5,0-0.9-0.4-0.9-0.9v-4.7C171.1,14.4,181.3,14.4,181.3,14.4z"
				/>
		</g>
		<g>
			<path class="st0" d="M26.5,6c-0.5,0-0.9,0.4-0.9,0.9v20.3c0,0.5,0.4,0.9,0.9,0.9h4.7V6H26.5z"/>
			<path class="st0" d="M47.1,28.1c0.5,0,0.9-0.4,0.9-0.9V6.9C48,6.4,47.6,6,47.1,6h-4.7v22.1H47.1z"/>
			<path class="st0" d="M42.4,28.1H31.2v4.7c0,0.5,0.4,0.9,0.9,0.9h9.3c0.5,0,0.9-0.4,0.9-0.9L42.4,28.1L42.4,28.1z"/>
			<path class="st0" d="M31.2,6h11.2V1.3c0-0.5-0.4-0.9-0.9-0.9h-9.3c-0.5,0-0.9,0.4-0.9,0.9V6H31.2z"/>
		</g>
		<g>
			<path class="st0" d="M130,6c-0.5,0-0.9,0.4-0.9,0.9v20.3c0,0.5,0.4,0.9,0.9,0.9h4.7V6H130z"/>
			<path class="st0" d="M150.5,28.1c0.5,0,0.9-0.4,0.9-0.9V6.9c0-0.5-0.4-0.9-0.9-0.9h-4.7v22.1H150.5z"/>
			<path class="st0" d="M145.9,28.1h-11.2v4.7c0,0.5,0.4,0.9,0.9,0.9h9.3c0.5,0,0.9-0.4,0.9-0.9v-4.7H145.9z"/>
			<path class="st0" d="M134.7,6h11.2V1.3c0-0.5-0.4-0.9-0.9-0.9h-9.3c-0.5,0-0.9,0.4-0.9,0.9V6H134.7z"/>
		</g>
		<g>
			<path class="st0" d="M67.5,1.3c0-0.5,0.4-0.9,0.9-0.9h3.7c0.5,0,0.9,0.4,0.9,0.9v25.9c0,0.5-0.4,0.9-0.9,0.9h-4.7L67.5,1.3
				L67.5,1.3z"/>
			<path class="st0" d="M56.3,1.3c0-0.5-0.4-0.9-0.9-0.9h-3.7c-0.5,0-0.9,0.4-0.9,0.9v25.9c0,0.5,0.4,0.9,0.9,0.9h4.7L56.3,1.3
				L56.3,1.3z"/>
			<path class="st0" d="M67.5,28.1H56.3v4.7c0,0.5,0.4,0.9,0.9,0.9h9.3c0.5,0,0.9-0.4,0.9-0.9L67.5,28.1L67.5,28.1z"/>
		</g>
		<g>
			<path class="st0" d="M97.3,28.1c0.5,0,0.9,0.4,0.9,0.9v3.7c0,0.5-0.4,0.9-0.9,0.9H82.4c-0.5,0-0.9-0.4-0.9-0.9V28h15.8V28.1z"/>
			<path class="st0" d="M81.5,1.3c0-0.5-0.4-0.9-0.9-0.9h-3.7c-0.5,0-0.9,0.4-0.9,0.9v25.9c0,0.5,0.4,0.9,0.9,0.9h4.7L81.5,1.3
				L81.5,1.3z"/>
		</g>
		<g>
			<path class="st0" d="M241,32.8c0,0.5,0.4,0.9,0.9,0.9h3.7c0.5,0,0.9-0.4,0.9-0.9V6.9c0-0.5-0.4-0.9-0.9-0.9H241V32.8z"/>
			<path class="st0" d="M229.8,32.8c0,0.5-0.4,0.9-0.9,0.9h-3.7c-0.5,0-0.9-0.4-0.9-0.9V6.9c0-0.5,0.4-0.9,0.9-0.9h4.7v26.8H229.8z"
				/>
			<path class="st0" d="M229.8,6V1.3c0-0.5,0.4-0.9,0.9-0.9h9.3c0.5,0,0.9,0.4,0.9,0.9V6H229.8z"/>
		</g>
		<g>
			<path class="st0" d="M201.8,14.4h-4.6c-0.5,0-0.9-0.4-0.9-0.9V1.4c0-0.5-0.4-0.9-0.9-0.9h-3.7c-0.5,0-0.9,0.4-0.9,0.9v31.5
				c0,0.5,0.4,0.9,0.9,0.9h3.7c0.5,0,0.9-0.4,0.9-0.9v-12c0-0.5,0.4-0.9,0.9-0.9h4.7L201.8,14.4L201.8,14.4z"/>
			<path class="st0" d="M207.4,32.8c0,0.5,0.4,0.9,0.9,0.9h3.7c0.5,0,0.9-0.4,0.9-0.9v-3.7c0-0.5-0.4-0.9-0.9-0.9h-4.7v4.6H207.4z"
				/>
			<path class="st0" d="M207.4,28.1v-7.2c0-0.5-0.4-0.9-0.9-0.9h-4.7v7.2c0,0.5,0.4,0.9,0.9,0.9H207.4z"/>
			<path class="st0" d="M207.4,1.3c0-0.5,0.4-0.9,0.9-0.9h3.7c0.5,0,0.9,0.4,0.9,0.9V5c0,0.5-0.4,0.9-0.9,0.9h-4.7V1.3H207.4z"/>
			<path class="st0" d="M207.4,6v7.4c0,0.5-0.4,0.9-0.9,0.9h-4.7V6.9c0-0.5,0.4-0.9,0.9-0.9H207.4z"/>
		</g>
		<g>
			<path class="st0" d="M221.4,1.3c0-0.5-0.4-0.9-0.9-0.9h-3.7c-0.5,0-0.9,0.4-0.9,0.9v31.5c0,0.5,0.4,0.9,0.9,0.9h3.7
				c0.5,0,0.9-0.4,0.9-0.9V1.3z"/>
		</g>
		<g>
			<path class="st0" d="M104.8,6c-0.5,0-0.9-0.4-0.9-0.9V1.3c0-0.5,0.4-0.9,0.9-0.9h6.5c0.5,0,0.9,0.4,0.9,0.9V6H104.8z"/>
			<path class="st0" d="M125.3,6c0.5,0,0.9-0.4,0.9-0.9V1.3c0-0.5-0.4-0.9-0.9-0.9h-6.5c-0.5,0-0.9,0.4-0.9,0.9V6H125.3z"/>
			<path class="st0" d="M117.9,6h-5.6v26.8c0,0.5,0.4,0.9,0.9,0.9h3.7c0.5,0,0.9-0.4,0.9-0.9L117.9,6L117.9,6z"/>
		</g>
	</g>
</g>
</svg>
