<?xml version="1.0" encoding="utf-8"?>
<!-- Generator: Adobe Illustrator 22.1.0, SVG Export Plug-In . SVG Version: 6.00 Build 0)  -->
<svg version="1.1" id="Layer_1" xmlns="http://www.w3.org/2000/svg" xmlns:xlink="http://www.w3.org/1999/xlink" x="0px" y="0px"
	 viewBox="0 0 74 34" style="enable-background:new 0 0 74 34;" xml:space="preserve">
<style type="text/css">
	.st0{fill:#D3D5C8;}
</style>
<g>
	<path class="st0" d="M26.8,6c-0.5,0-0.9-0.4-0.9-0.9l0-3.7c0-0.5,0.4-0.9,0.9-0.9h6.6c0.5,0,0.9,0.4,0.9,0.9l0,31.5
		c0,0.5,0.4,0.9,0.9,0.9h3.7c0.5,0,0.9-0.4,0.9-0.9L39.7,1.3c0-0.5,0.4-0.9,0.9-0.9h6.6c0.5,0,0.9,0.4,0.9,0.9v3.7
		c0,0.5-0.4,0.9-0.9,0.9L26.8,6z"/>
	<path class="st0" d="M22.1,28.1c0.5,0,0.9-0.4,0.9-0.9l0-25.8c0-0.5-0.4-0.9-0.9-0.9l-3.7,0c-0.5,0-0.9,0.4-0.9,0.9v31.4
		c0,0.5-0.4,0.9-0.9,0.9h-3.7c-0.5,0-0.9-0.4-0.9-0.9V15.3c0-0.5-0.4-0.9-0.9-0.9l-9.3,0c-0.5,0-0.9-0.4-0.9-0.9V1.4
		c0-0.5,0.4-0.9,0.9-0.9h3.7c0.5,0,0.9,0.4,0.9,0.9v25.8c0,0.5,0.4,0.9,0.9,0.9H22.1z"/>
	<g>
		<path class="st0" d="M57.5,14.4c-0.5,0-0.9-0.4-0.9-0.9V6.9C56.6,6.4,57,6,57.5,6l10.3-0.1V1.3c0-0.5-0.4-0.9-0.9-0.9h-15
			c-0.5,0-0.9,0.4-0.9,0.9v31.5c0,0.5,0.4,0.9,0.9,0.9h3.7c0.5,0,0.9-0.4,0.9-0.9V20.9c0-0.5,0.4-0.9,0.9-0.9h10.3v-5.6H57.5z"/>
		<path class="st0" d="M68.7,33.7h3.7c0.5,0,0.9-0.4,0.9-0.9V20.9c0-0.5-0.4-0.9-0.9-0.9h-4.7v12.8C67.8,33.3,68.2,33.7,68.7,33.7z"
			/>
		<path class="st0" d="M72.5,14.4c0.5,0,0.9-0.4,0.9-0.9V6.8c0-0.5-0.4-0.9-0.9-0.9l-4.7,0v8.4H72.5z"/>
	</g>
</g>
</svg>
